<?xml version="1.0" encoding="utf-8"?>
<svg version="1.1" xmlns="http://www.w3.org/2000/svg" xmlns:xlink="http://www.w3.org/1999/xlink" x="0px" y="0px" viewBox="0 0 200 200" enable-background="new 0 0 200 200" xml:space="preserve">
<path fill="#8a2961" d="m52.697 40v120h30.676v-90.475h12.84c5.1228 0 8.6979 1.2412 10.459 2.8262l0.0429 0.03698 0.045 0.04101c1.8142 1.5421 2.8613 3.8533 2.8613 7.9277 0 3.9068-1.0095 6.1549-2.8828 7.9297l-0.005 0.0095-0.005 0.0047c-2.0136 1.922-6.0786 3.3144-12.238 3.3144h-8.3848v27.152l28.613 41.232h29.236l3.3438-6.4277-26.832-38.291c4.3556-2.1945 8.3451-4.8403 11.385-8.4746 6.0137-6.8503 8.877-15.848 8.877-26.164 0-11.588-3.6389-21.636-10.596-28.916h-0.005v-0.0047c-3.7643-3.9279-8.492-6.8314-13.863-8.7363-5.4716-2.0851-11.672-2.9863-18.336-2.9863z" />
</svg>